<svg width="40" height="40" viewBox="0 0 40 40" fill="none" xmlns="http://www.w3.org/2000/svg">
<path d="M9 11.5C9 10.3065 9.47411 9.16193 10.318 8.31802C11.1619 7.47411 12.3065 7 13.5 7C14.6935 7 15.8381 7.47411 16.682 8.31802C17.5259 9.16193 18 10.3065 18 11.5C18 12.6935 17.5259 13.8381 16.682 14.682C15.8381 15.5259 14.6935 16 13.5 16C12.3065 16 11.1619 15.5259 10.318 14.682C9.47411 13.8381 9 12.6935 9 11.5ZM13.5 5C11.7761 5 10.1228 5.68482 8.90381 6.90381C7.68482 8.12279 7 9.77609 7 11.5C7 13.2239 7.68482 14.8772 8.90381 16.0962C10.1228 17.3152 11.7761 18 13.5 18C15.2239 18 16.8772 17.3152 18.0962 16.0962C19.3152 14.8772 20 13.2239 20 11.5C20 9.77609 19.3152 8.12279 18.0962 6.90381C16.8772 5.68482 15.2239 5 13.5 5ZM3 24C3 22.9391 3.42143 21.9217 4.17157 21.1716C4.92172 20.4214 5.93913 20 7 20H20C20.6965 19.9994 21.3811 20.1807 21.986 20.526C21.4313 20.9873 20.926 21.4973 20.47 22.056C20.3161 22.0188 20.1583 22 20 22H7C6.46957 22 5.96086 22.2107 5.58579 22.5858C5.21071 22.9609 5 23.4696 5 24V24.156L5.014 24.322C5.12253 25.2807 5.46452 26.1982 6.01 26.994C6.984 28.402 9.026 30 13.5 30C15.408 30 16.874 29.71 18.004 29.266C18.0213 29.966 18.1013 30.646 18.244 31.306C16.952 31.74 15.39 32 13.5 32C8.474 32 5.766 30.16 4.364 28.132C3.6258 27.0564 3.16543 25.8148 3.024 24.518C3.01259 24.4016 3.00459 24.2849 3 24.168V24ZM26 13C26 12.2044 26.3161 11.4413 26.8787 10.8787C27.4413 10.3161 28.2044 10 29 10C29.7956 10 30.5587 10.3161 31.1213 10.8787C31.6839 11.4413 32 12.2044 32 13C32 13.7956 31.6839 14.5587 31.1213 15.1213C30.5587 15.6839 29.7956 16 29 16C28.2044 16 27.4413 15.6839 26.8787 15.1213C26.3161 14.5587 26 13.7956 26 13ZM29 8C27.6739 8 26.4021 8.52678 25.4645 9.46447C24.5268 10.4021 24 11.6739 24 13C24 14.3261 24.5268 15.5979 25.4645 16.5355C26.4021 17.4732 27.6739 18 29 18C30.3261 18 31.5979 17.4732 32.5355 16.5355C33.4732 15.5979 34 14.3261 34 13C34 11.6739 33.4732 10.4021 32.5355 9.46447C31.5979 8.52678 30.3261 8 29 8ZM38 29C38 31.3869 37.0518 33.6761 35.364 35.364C33.6761 37.0518 31.3869 38 29 38C26.6131 38 24.3239 37.0518 22.636 35.364C20.9482 33.6761 20 31.3869 20 29C20 26.6131 20.9482 24.3239 22.636 22.636C24.3239 20.9482 26.6131 20 29 20C31.3869 20 33.6761 20.9482 35.364 22.636C37.0518 24.3239 38 26.6131 38 29ZM33.708 25.292C33.6151 25.1989 33.5048 25.125 33.3833 25.0746C33.2618 25.0242 33.1315 24.9982 33 24.9982C32.8685 24.9982 32.7382 25.0242 32.6167 25.0746C32.4952 25.125 32.3849 25.1989 32.292 25.292L27 30.586L25.708 29.292C25.5202 29.1042 25.2656 28.9987 25 28.9987C24.7344 28.9987 24.4798 29.1042 24.292 29.292C24.1042 29.4798 23.9987 29.7344 23.9987 30C23.9987 30.2656 24.1042 30.5202 24.292 30.708L26.292 32.708C26.3849 32.8011 26.4952 32.875 26.6167 32.9254C26.7382 32.9758 26.8685 33.0018 27 33.0018C27.1315 33.0018 27.2618 32.9758 27.3833 32.9254C27.5048 32.875 27.6151 32.8011 27.708 32.708L33.708 26.708C33.8011 26.6151 33.875 26.5048 33.9254 26.3833C33.9758 26.2618 34.0018 26.1315 34.0018 26C34.0018 25.8685 33.9758 25.7382 33.9254 25.6167C33.875 25.4952 33.8011 25.3849 33.708 25.292Z" fill="white"/>
</svg>
