<svg width="40" height="40" viewBox="0 0 40 40" fill="none" xmlns="http://www.w3.org/2000/svg">
<path d="M3.49087 18.4775C3.47089 18.2473 3.49896 18.0156 3.5733 17.7969C3.64764 17.5782 3.76663 17.3773 3.92272 17.2071C4.07881 17.0368 4.26858 16.9008 4.48 16.8078C4.69143 16.7148 4.91988 16.6667 5.15087 16.6666H8.33337C8.77539 16.6666 9.19932 16.8422 9.51188 17.1548C9.82444 17.4673 10 17.8913 10 18.3333V34.1666C10 34.6086 9.82444 35.0326 9.51188 35.3451C9.19932 35.6577 8.77539 35.8333 8.33337 35.8333H6.52837C6.11122 35.8334 5.70921 35.6771 5.40172 35.3952C5.09423 35.1133 4.90362 34.7264 4.86753 34.3108L3.49087 18.4775ZM15 17.8125C15 17.1158 15.4334 16.4925 16.0625 16.1958C17.4367 15.5475 19.7775 14.245 20.8334 12.4841C22.1942 10.2141 22.4509 6.11329 22.4925 5.17412C22.4984 5.04245 22.495 4.91079 22.5125 4.78079C22.7384 3.15329 25.8792 5.05412 27.0834 7.06412C27.7375 8.15412 27.8209 9.58662 27.7525 10.7058C27.6784 11.9025 27.3275 13.0583 26.9834 14.2066L26.25 16.6541H35.2975C35.555 16.6541 35.809 16.7138 36.0396 16.8284C36.2702 16.943 36.4711 17.1095 36.6265 17.3149C36.7819 17.5202 36.8877 17.7587 36.9354 18.0118C36.9831 18.2648 36.9716 18.5255 36.9017 18.7733L32.4267 34.62C32.3279 34.9695 32.1177 35.2771 31.8279 35.4961C31.5382 35.7152 31.1849 35.8335 30.8217 35.8333H16.6667C16.2247 35.8333 15.8007 35.6577 15.4882 35.3451C15.1756 35.0326 15 34.6086 15 34.1666V17.8125Z" stroke="white" stroke-width="4" stroke-linecap="round" stroke-linejoin="round"/>
</svg>
