<svg width="40" height="40" viewBox="0 0 40 40" fill="none" xmlns="http://www.w3.org/2000/svg">
<path d="M14.6666 18.6666C12.8985 18.6666 11.2028 17.9642 9.95254 16.714C8.7023 15.4638 7.99992 13.7681 7.99992 12V6.66663C7.99992 6.313 8.14039 5.97387 8.39044 5.72382C8.64049 5.47377 8.97963 5.33329 9.33325 5.33329H10.6666C11.0202 5.33329 11.3593 5.19282 11.6094 4.94277C11.8594 4.69272 11.9999 4.35358 11.9999 3.99996C11.9999 3.64634 11.8594 3.3072 11.6094 3.05715C11.3593 2.8071 11.0202 2.66663 10.6666 2.66663H9.33325C8.27239 2.66663 7.25497 3.08805 6.50482 3.8382C5.75468 4.58834 5.33325 5.60576 5.33325 6.66663V12C5.33497 13.5063 5.70228 14.9897 6.40365 16.3227C7.10502 17.6558 8.11949 18.7987 9.35992 19.6533C10.5517 20.704 11.5182 21.9853 12.2011 23.4198C12.884 24.8544 13.2691 26.4124 13.3333 28C13.3333 30.4753 14.3166 32.8493 16.0669 34.5996C17.8173 36.35 20.1912 37.3333 22.6666 37.3333C25.1419 37.3333 27.5159 36.35 29.2662 34.5996C31.0166 32.8493 31.9999 30.4753 31.9999 28V26.48C33.2568 26.1554 34.3522 25.3837 35.0807 24.3093C35.8093 23.2349 36.121 21.9317 35.9574 20.644C35.7938 19.3562 35.1662 18.1723 34.1922 17.3142C33.2182 16.4561 31.9647 15.9826 30.6666 15.9826C29.3685 15.9826 28.115 16.4561 27.1409 17.3142C26.1669 18.1723 25.5393 19.3562 25.3758 20.644C25.2122 21.9317 25.5239 23.2349 26.2524 24.3093C26.981 25.3837 28.0764 26.1554 29.3333 26.48V28C29.3333 29.7681 28.6309 31.4638 27.3806 32.714C26.1304 33.9642 24.4347 34.6666 22.6666 34.6666C20.8985 34.6666 19.2028 33.9642 17.9525 32.714C16.7023 31.4638 15.9999 29.7681 15.9999 28C16.0674 26.4105 16.4567 24.8512 17.1442 23.4166C17.8318 21.9819 18.8033 20.7016 19.9999 19.6533C21.2354 18.7957 22.2447 17.6515 22.9413 16.3187C23.638 14.9858 24.0012 13.5039 23.9999 12V6.66663C23.9999 5.60576 23.5785 4.58834 22.8283 3.8382C22.0782 3.08805 21.0608 2.66663 19.9999 2.66663H18.6666C18.313 2.66663 17.9738 2.8071 17.7238 3.05715C17.4737 3.3072 17.3333 3.64634 17.3333 3.99996C17.3333 4.35358 17.4737 4.69272 17.7238 4.94277C17.9738 5.19282 18.313 5.33329 18.6666 5.33329H19.9999C20.3535 5.33329 20.6927 5.47377 20.9427 5.72382C21.1928 5.97387 21.3333 6.313 21.3333 6.66663V12C21.3333 12.8754 21.1608 13.7423 20.8258 14.5512C20.4908 15.36 19.9997 16.0949 19.3806 16.714C18.7616 17.3331 18.0266 17.8241 17.2178 18.1592C16.409 18.4942 15.5421 18.6666 14.6666 18.6666ZM30.6666 24C29.9593 24 29.2811 23.719 28.781 23.2189C28.2809 22.7188 27.9999 22.0405 27.9999 21.3333C27.9999 20.626 28.2809 19.9478 28.781 19.4477C29.2811 18.9476 29.9593 18.6666 30.6666 18.6666C31.3738 18.6666 32.0521 18.9476 32.5522 19.4477C33.0523 19.9478 33.3333 20.626 33.3333 21.3333C33.3333 22.0405 33.0523 22.7188 32.5522 23.2189C32.0521 23.719 31.3738 24 30.6666 24Z" fill="white"/>
</svg>
