<svg width="40" height="40" viewBox="0 0 40 40" fill="none" xmlns="http://www.w3.org/2000/svg">
<path d="M15.0001 33.3334C14.4723 33.3334 14.0001 33.1806 13.5834 32.875C13.1667 32.5695 12.8612 32.1806 12.6667 31.7084L8.83342 21.6667H1.66675V18.3334H11.1667L15.0001 28.5L22.6667 8.29169C22.8612 7.81946 23.1667 7.43058 23.5834 7.12502C24.0001 6.81946 24.4723 6.66669 25.0001 6.66669C25.5279 6.66669 26.0001 6.81946 26.4167 7.12502C26.8334 7.43058 27.139 7.81946 27.3334 8.29169L31.1667 18.3334H38.3334V21.6667H28.8334L25.0001 11.5L17.3334 31.7084C17.139 32.1806 16.8334 32.5695 16.4167 32.875C16.0001 33.1806 15.5279 33.3334 15.0001 33.3334Z" fill="white"/>
</svg>
