<svg width="40" height="40" viewBox="0 0 40 40" fill="none" xmlns="http://www.w3.org/2000/svg">
<g clip-path="url(#clip0_59_106)">
<path d="M22.165 5.24664L36.555 30.17C36.7745 30.55 36.89 30.9811 36.89 31.42C36.89 31.8588 36.7745 32.2899 36.5551 32.6699C36.3357 33.05 36.0201 33.3656 35.64 33.585C35.26 33.8044 34.8289 33.92 34.39 33.92H5.61004C5.17121 33.92 4.74011 33.8044 4.36007 33.585C3.98003 33.3656 3.66444 33.05 3.44503 32.6699C3.22561 32.2899 3.1101 31.8588 3.11011 31.42C3.11011 30.9811 3.22563 30.55 3.44504 30.17L17.835 5.24664C18.7967 3.57998 21.2017 3.57998 22.165 5.24664ZM20 8.16331L7.05338 30.5866H32.9467L20 8.16331ZM20 25C20.4421 25 20.866 25.1756 21.1786 25.4881C21.4911 25.8007 21.6667 26.2246 21.6667 26.6666C21.6667 27.1087 21.4911 27.5326 21.1786 27.8452C20.866 28.1577 20.4421 28.3333 20 28.3333C19.558 28.3333 19.1341 28.1577 18.8215 27.8452C18.509 27.5326 18.3334 27.1087 18.3334 26.6666C18.3334 26.2246 18.509 25.8007 18.8215 25.4881C19.1341 25.1756 19.558 25 20 25ZM20 13.3333C20.4421 13.3333 20.866 13.5089 21.1786 13.8215C21.4911 14.134 21.6667 14.5579 21.6667 15V21.6666C21.6667 22.1087 21.4911 22.5326 21.1786 22.8452C20.866 23.1577 20.4421 23.3333 20 23.3333C19.558 23.3333 19.1341 23.1577 18.8215 22.8452C18.509 22.5326 18.3334 22.1087 18.3334 21.6666V15C18.3334 14.5579 18.509 14.134 18.8215 13.8215C19.1341 13.5089 19.558 13.3333 20 13.3333Z" fill="white"/>
</g>
<defs>
<clipPath id="clip0_59_106">
<rect width="40" height="40" fill="white"/>
</clipPath>
</defs>
</svg>
