<svg width="40" height="40" viewBox="0 0 40 40" fill="none" xmlns="http://www.w3.org/2000/svg">
<g clip-path="url(#clip0_59_114)">
<path d="M32.228 26.6857C32.7648 26.1759 33.1923 25.5622 33.4845 24.8819C33.7766 24.2016 33.9273 23.469 33.9273 22.7286C33.9273 21.9882 33.7766 21.2556 33.4845 20.5753C33.1923 19.895 32.7648 19.2813 32.228 18.7714C31.129 17.7284 29.6717 17.1469 28.1565 17.1469C26.6414 17.1469 25.1841 17.7284 24.0851 18.7714L19.9994 22.8572L15.9137 18.7714C14.8147 17.7284 13.3574 17.1469 11.8423 17.1469C10.3271 17.1469 8.86979 17.7284 7.77083 18.7714C7.23396 19.2813 6.80646 19.895 6.51432 20.5753C6.22218 21.2556 6.07153 21.9882 6.07153 22.7286C6.07153 23.469 6.22218 24.2016 6.51432 24.8819C6.80646 25.5622 7.23396 26.1759 7.77083 26.6857L19.9994 38.5714L32.228 26.6857ZM19.9994 12.8572C21.5149 12.8572 22.9684 12.2551 24.04 11.1835C25.1116 10.1118 25.7137 8.6584 25.7137 7.14287C25.7137 5.62735 25.1116 4.1739 24.04 3.10226C22.9684 2.03063 21.5149 1.42859 19.9994 1.42859C18.4839 1.42859 17.0304 2.03063 15.9588 3.10226C14.8872 4.1739 14.2851 5.62735 14.2851 7.14287C14.2851 8.6584 14.8872 10.1118 15.9588 11.1835C17.0304 12.2551 18.4839 12.8572 19.9994 12.8572Z" stroke="white" stroke-width="3.64286" stroke-linecap="round" stroke-linejoin="round"/>
</g>
<defs>
<clipPath id="clip0_59_114">
<rect width="40" height="40" fill="white"/>
</clipPath>
</defs>
</svg>
